<?xml version='1.0' encoding='utf-8'?>
<!DOCTYPE svg PUBLIC '-//W3C//DTD SVG 1.1//EN' 'http://www.w3.org/Graphics/SVG/1.1/DTD/svg11.dtd'>
<svg version="1.1" xmlns="http://www.w3.org/2000/svg" viewBox="0 0 512 512" xmlns:xlink="http://www.w3.org/1999/xlink" enable-background="new 0 0 512 512">
  <g>
    <g>
      <path d="m464.1,67.7h-416.2c-19.8,0-36.4,15.6-36.4,36.4v303.8c0,19.8 15.6,36.4 36.4,36.4h416.1c19.8,0 36.4-16.6 36.4-37.4v-302.8c0.1-19.7-15.5-36.4-36.3-36.4zm16.6,339.1c0,9.4-7.3,16.6-16.6,16.6h-416.2c-9.4,0-16.6-7.3-16.6-16.6v-302.7c0-9.4 7.3-16.6 16.6-16.6h416.1c9.4,0 16.6,7.3 16.6,16.6v302.7z"/>
      <path d="M178,134.3H69.8v108.2H178V134.3z M158.2,222.7H90.6v-67.6h67.6V222.7z"/>
      <rect width="215.3" x="80.2" y="294.5" height="20.8"/>
      <rect width="215.3" x="80.2" y="360" height="20.8"/>
    </g>
  </g>
</svg>
